<?xml version="1.0" encoding="UTF-8" standalone="no"?>
<svg
   width="512"
   height="512"
   viewBox="0 0 512 512"
   fill="none"
   role="img"
   aria-labelledby="title desc"
   version="1.1"
   id="svg16"
   sodipodi:docname="hero-dark.svg"
   inkscape:version="1.1.2 (b8e25be833, 2022-02-05)"
   xmlns:inkscape="http://www.inkscape.org/namespaces/inkscape"
   xmlns:sodipodi="http://sodipodi.sourceforge.net/DTD/sodipodi-0.dtd"
   xmlns:xlink="http://www.w3.org/1999/xlink"
   xmlns="http://www.w3.org/2000/svg"
   xmlns:svg="http://www.w3.org/2000/svg">
  <defs
     id="defs11">
    <linearGradient
       inkscape:collect="always"
       id="linearGradient17343">
      <stop
         style="stop-color:#cacaca;stop-opacity:1"
         offset="0"
         id="stop17339" />
      <stop
         style="stop-color:#3e3e3e;stop-opacity:1"
         offset="1"
         id="stop17341" />
    </linearGradient>
    <linearGradient
       inkscape:collect="always"
       xlink:href="#linearGradient17343"
       id="linearGradient17345"
       x1="174.02223"
       y1="17.155869"
       x2="174.82927"
       y2="407.41464"
       gradientUnits="userSpaceOnUse" />
  </defs>
  <sodipodi:namedview
     id="namedview9"
     pagecolor="#ffffff"
     bordercolor="#cccccc"
     borderopacity="1"
     inkscape:pageshadow="0"
     inkscape:pageopacity="1"
     inkscape:pagecheckerboard="0"
     showgrid="false"
     inkscape:zoom="0.640625"
     inkscape:cx="344.19512"
     inkscape:cy="276.29268"
     inkscape:window-width="1474"
     inkscape:window-height="907"
     inkscape:window-x="1187"
     inkscape:window-y="289"
     inkscape:window-maximized="0"
     inkscape:current-layer="svg16" />
  <rect
     x="21.779074"
     y="74.79821"
     width="467.68433"
     height="241.37251"
     rx="28"
     fill="#ffffff"
     stroke="#0f172a"
     stroke-width="14.0001"
     id="rect6"
     ry="27.999998"
     style="fill:url(#linearGradient17345);fill-opacity:1;stroke:none" />
  <g
     aria-label="ABC"
     transform="matrix(1.0137604,0,0,0.98642634,-2,-2)"
     id="text8"
     style="fill:#ffffff;fill-opacity:1;stroke:none;stroke-width:0.999997;stroke-opacity:1">
    <path
       id="path32180"
       style="-inkscape-font-specification:'Noto Sans JP Bold';fill:#ffffff;fill-opacity:1;stroke:none;stroke-opacity:1"
       d="M 348.17969,134.23047 C 340.45255,134.23047 333.11263,135.62723 326.1582,138.41992 319.31416,141.21262 313.24197,145.2935 307.94336,150.66406 302.75514,156.03463 298.67187,162.5867 295.69141,170.32031 292.71094,177.94651 291.2207,186.70019 291.2207,196.58203 291.2207,206.46387 292.65531,215.2195 295.52539,222.8457 298.50586,230.4719 302.53545,236.91653 307.61328,242.17969 312.8015,247.44284 318.76244,251.41628 325.49609,254.10156 332.22974,256.67943 339.46036,257.96875 347.1875,257.96875 355.2458,257.96875 362.53009,256.51925 369.04297,253.61914 375.55584,250.61163 381.35185,246.20646 386.42969,240.40625 L 373.34961,225.58398 C 370.14837,229.02115 366.4506,231.86741 362.25586,234.12305 358.17152,236.27127 353.4783,237.3457 348.17969,237.3457 341.7772,237.3457 336.14807,235.68131 331.29102,232.35156 326.54434,229.02181 322.84657,224.29432 320.19727,218.17188 317.65835,211.94202 316.38867,204.47766 316.38867,195.77734 316.38867,187.18444 317.7696,179.82752 320.5293,173.70508 323.28899,167.58263 327.09607,162.90984 331.95312,159.6875 336.92057,156.35775 342.49602,154.69336 348.67773,154.69336 353.31401,154.69336 357.4529,155.60565 361.0957,157.43164 364.84888,159.25763 368.27047,161.67412 371.36133,164.68164 L 384.11133,149.53711 C 380.24776,145.45548 375.22468,141.90986 369.04297,138.90234 362.97165,135.78741 356.01722,134.23047 348.17969,134.23047 Z M 101.96094,136.32422 62.71875,255.71289 H 87.554688 L 96.195312,225.09961 H 135.79102 L 144.34961,255.71289 H 170.17969 L 130.9375,136.32422 Z M 184.58594,136.32422 V 255.71289 H 228.29883 C 237.35061,255.71289 245.40979,254.47828 252.47461,252.00781 259.64981,249.42995 265.27894,245.56199 269.36328,240.40625 273.55801,235.14309 275.65625,228.53828 275.65625,220.58984 275.65625,212.64141 273.50239,206.35697 269.19727,201.73828 264.89215,197.01218 259.42795,193.89829 252.80469,192.39453 V 191.75 C 256.3371,190.46106 259.31757,188.47239 261.74609,185.78711 264.17462,183.10183 266.0523,180.04068 267.37695,176.60352 268.81199,173.05894 269.5293,169.46058 269.5293,165.80859 269.5293,158.39722 267.54231,152.5445 263.56836,148.24805 259.70479,143.95159 254.40553,140.89045 247.67188,139.06445 241.04861,137.23846 233.54376,136.32422 225.1543,136.32422 Z M 115.53906,154.53125 H 116.20117 C 118.07776,160.86852 119.84418,167.42059 121.5,174.1875 123.2662,180.847 125.0863,187.29163 126.96289,193.52148 L 130.61133,206.57227 H 101.42383 L 105.10742,193.52148 C 106.87363,187.29163 108.64005,180.847 110.40625,174.1875 112.28284,167.528 113.99364,160.97593 115.53906,154.53125 Z M 209.0918,154.69336 H 223.66406 C 231.06004,154.69336 236.57791,155.82054 240.2207,158.07617 243.8635,160.33181 245.68555,164.09037 245.68555,169.35352 245.68555,174.07962 243.91913,177.89286 240.38672,180.79297 236.85431,183.58566 231.22519,184.98242 223.49805,184.98242 H 209.0918 Z M 209.0918,202.54492 H 226.14648 C 234.53595,202.54492 240.88434,203.88698 245.18945,206.57227 249.60496,209.15013 251.8125,213.33846 251.8125,219.13867 251.8125,225.36853 249.60496,229.98858 245.18945,232.99609 240.88434,235.8962 234.53595,237.3457 226.14648,237.3457 H 209.0918 Z"
       transform="scale(0.98642638,1.0137604)" />
  </g>
  <rect
     x="419.33801"
     y="104.23945"
     width="32.460201"
     height="180.68742"
     rx="13.804875"
     fill="#2563eb"
     id="rect10"
     ry="14.195111"
     style="stroke-width:0.999996;stroke-miterlimit:4;stroke-dasharray:none;fill:#eeeeee;fill-opacity:1;stroke:none" />
  <circle
     style="fill:#2ac53f;fill-opacity:1;stroke:none;stroke-width:40;stroke-linecap:round;stroke-linejoin:round;paint-order:fill markers stroke"
     id="path13744"
     cx="313.60977"
     cy="374.1951"
     r="100" />
  <path
     style="fill:none;stroke:#ffffff;stroke-width:30;stroke-linecap:butt;stroke-linejoin:miter;stroke-miterlimit:4;stroke-dasharray:none;stroke-opacity:1"
     d="M 251.05169,372.28773 311.38809,416.76562 C 335.06616,382.68173 376.7312,328.12455 376.7312,328.12455"
     id="path13349"
     sodipodi:nodetypes="ccc" />
</svg>
